<?xml version="1.0" encoding="utf-8"?>
<!-- Generator: Adobe Illustrator 15.0.0, SVG Export Plug-In . SVG Version: 6.00 Build 0)  -->
<!DOCTYPE svg PUBLIC "-//W3C//DTD SVG 1.1//EN" "http://www.w3.org/Graphics/SVG/1.1/DTD/svg11.dtd">
<svg version="1.1" id="Layer_1" xmlns="http://www.w3.org/2000/svg" xmlns:xlink="http://www.w3.org/1999/xlink" x="0px" y="0px"
	 width="300px" height="300px" viewBox="0 0 300 300" enable-background="new 0 0 300 300" xml:space="preserve">
<path d="M174.171,128c-0.965-1-1.961-2.535-3.019-3.777c-5.579-6.551-12.393-11.666-20.441-15.432
	c-8.045-3.762-17.195-5.623-27.449-5.623c-2.414,0-4.762,0.131-7.059,0.342c0.404-1.561,0.837-3.102,1.33-4.618
	c2.652-8.146,6.587-15.343,11.693-21.396c5.095-6.037,11.411-10.883,18.774-14.408c7.357-3.52,15.883-5.304,25.342-5.304
	c7.069,0,13.623,0.989,19.479,2.94c5.834,1.947,11.046,4.774,15.489,8.402c4.447,3.638,8.195,8.053,11.137,13.122
	c2.949,5.085,5.018,11.042,6.148,17.323l0.223,1.428h6.913l-0.285-1.936c-1.19-7.271-3.442-14.017-6.691-19.856
	c-3.259-5.849-7.507-10.987-12.626-15.179c-5.108-4.178-11.096-7.466-17.797-9.726c-6.684-2.248-14.082-3.399-21.99-3.399
	c-10.424,0-19.873,1.94-28.085,5.78c-8.206,3.839-15.254,9.173-20.947,15.859c-5.68,6.67-10.096,14.63-13.129,23.661
	c-0.917,2.729-1.68,5.533-2.32,8.394c-2.444,0.502-4.818,1.13-7.111,1.901c-6.552,2.209-12.328,5.354-17.326,9.441
	c-4.994,4.089-9.083,9.033-12.265,14.742C68.98,136.396,66.806,143,65.638,150h3.894c1.168-7,3.279-12.406,6.327-17.662
	c3.051-5.256,6.88-9.785,11.485-13.552c4.608-3.763,9.929-6.66,15.964-8.674c1.534-0.512,3.11-0.962,4.725-1.343
	c-0.924,5.303-1.406,10.79-1.406,16.435c0,10.106,1.432,19.755,4.255,28.679c2.835,8.971,7.088,16.663,12.64,23.336
	c0.868,1.043,1.784,1.781,2.722,2.781h-62.34v65h4l-0.123-34c3.766,12,10.513,21.046,20.246,27.665s21.481,9.938,35.236,9.938
	c10.644,0,20.052-1.911,28.229-5.737c8.176-3.827,14.989-9.017,20.44-15.571c5.451-6.553,9.573-14.241,12.362-23.068
	c0.614-1.942,1.149-3.916,1.628-5.914c8.799-1.467,16.763-4.539,23.595-9.186c8.074-5.49,14.387-12.807,18.387-21.81V196h7v-68
	H174.171z M117.346,151.524c-2.539-8.182-3.826-17.038-3.826-26.323c0-6.102,0.598-12.016,1.757-17.684
	c2.573-0.288,5.235-0.434,7.985-0.434c9.734,0,18.397,1.819,25.989,5.451c7.593,3.635,14.017,8.566,19.273,14.795
	c5.256,6.23,9.247,13.53,11.973,21.901c2.725,8.371,4.088,17.296,4.088,26.769c0,5.481-0.448,10.772-1.316,15.885
	c-3.041,0.477-6.157,0.731-9.342,0.731c-9.985,0-18.842-1.786-26.325-5.309c-7.485-3.521-13.83-8.364-18.855-14.397
	C123.705,166.862,119.869,159.667,117.346,151.524z M180.691,202.768c-2.595,8.371-6.488,15.672-11.681,21.901
	c-5.189,6.229-11.647,11.163-19.37,14.795c-7.721,3.635-16.709,5.451-26.963,5.451c-7.656,0-14.859-1.329-21.609-3.991
	c-6.746-2.658-12.62-6.357-17.618-11.097c-4.994-4.735-8.665-10.381-11.521-16.937c-2.854-6.552-4.027-13.657-4.027-21.317V184
	h62.439c4.173,4,8.9,6.794,14.137,9.245c8.345,3.905,18.056,5.978,28.864,5.978c2.896,0,5.709-0.109,8.442-0.402
	C181.448,200.133,181.091,201.482,180.691,202.768z M227.902,140.774c0,7.412-1.492,14.383-4.252,20.718
	c-2.762,6.339-6.655,11.872-11.481,16.447c-4.834,4.584-10.623,8.215-17.159,10.79c-2.475,0.976-5.039,1.769-7.659,2.378
	c0.754-4.879,1.135-9.912,1.135-15.107c0-10.124-1.494-19.665-4.481-28.557c-1.485-4.425-3.298-8.443-5.427-12.443h49.325V140.774z"
	/>
<g>
	<path d="M810.902,199c-0.965-1-1.961-2.443-3.019-3.686c-5.579-6.551-12.393-11.62-20.441-15.386
		c-8.045-3.762-17.195-5.601-27.449-5.601c-2.414,0-4.762,0.143-7.059,0.354c0.404-1.561,0.837-3.096,1.33-4.612
		c2.652-8.146,6.587-15.34,11.693-21.393c5.095-6.037,11.411-10.881,18.774-14.407c7.357-3.52,15.883-5.303,25.342-5.303
		c7.069,0,13.623,0.989,19.479,2.94c5.834,1.947,11.046,4.775,15.489,8.403c4.447,3.638,8.195,8.053,11.137,13.122
		c2.949,5.085,5.018,10.95,6.148,17.231l0.223,1.336h6.913l-0.285-1.844c-1.19-7.271-3.442-13.971-6.691-19.811
		c-3.259-5.849-7.507-10.964-12.626-15.156c-5.108-4.178-11.096-7.455-17.797-9.714c-6.684-2.248-14.082-3.394-21.99-3.394
		c-10.424,0-19.873,1.943-28.085,5.783c-8.206,3.839-15.254,9.174-20.947,15.861c-5.68,6.67-10.096,14.63-13.129,23.662
		c-0.917,2.729-1.68,5.534-2.32,8.395c-2.444,0.502-4.818,1.13-7.111,1.901c-6.552,2.209-12.328,5.354-17.326,9.441
		c-4.994,4.089-9.083,8.941-12.265,14.65c-3.179,5.713-5.354,12.225-6.521,19.225h3.894c1.168-7,3.279-12.314,6.327-17.57
		c3.051-5.256,6.88-9.739,11.485-13.506c4.608-3.763,9.929-6.637,15.964-8.65c1.534-0.512,3.11-0.951,4.725-1.332
		c-0.924,5.303-1.406,10.796-1.406,16.44c0,10.106,1.432,19.758,4.255,28.682c2.835,8.971,7.088,16.573,12.64,23.246
		c0.868,1.043,1.784,1.69,2.722,2.69h-63.071v65h4.731l-0.123-33.908c3.766,12,10.513,21.092,20.246,27.711
		s21.481,9.961,35.236,9.961c10.644,0,20.052-1.899,28.229-5.726c8.176-3.827,14.989-9.011,20.44-15.565
		c5.451-6.553,9.573-14.238,12.362-23.065c0.614-1.942,1.149-3.914,1.628-5.912c8.799-1.467,16.396-4.539,23.229-9.186
		c8.074-5.49,14.021-12.806,18.021-21.809V267h7v-68H810.902z M754.077,222.708c-2.539-8.182-3.826-17.038-3.826-26.323
		c0-6.102,0.598-12.016,1.757-17.684c2.573-0.288,5.235-0.434,7.985-0.434c9.734,0,18.397,1.819,25.989,5.451
		c7.593,3.635,14.017,8.566,19.273,14.795c5.256,6.23,9.247,13.53,11.973,21.901c2.725,8.371,4.088,17.296,4.088,26.769
		c0,5.481-0.448,10.772-1.316,15.885c-3.041,0.477-6.157,0.731-9.342,0.731c-9.985,0-18.842-1.786-26.325-5.309
		c-7.485-3.521-13.83-8.364-18.855-14.397C760.437,238.046,756.601,230.851,754.077,222.708z M817.423,273.951
		c-2.595,8.371-6.488,15.672-11.681,21.901c-5.189,6.229-11.647,11.163-19.37,14.795c-7.721,3.635-16.709,5.451-26.963,5.451
		c-7.656,0-14.859-1.329-21.609-3.991c-6.746-2.658-12.62-6.357-17.618-11.097c-4.994-4.735-9.029-10.381-11.887-16.937
		c-2.854-6.552-4.393-13.657-4.393-21.317V255h63.171c4.173,4,8.9,6.886,14.137,9.337c8.345,3.905,18.056,6.023,28.864,6.023
		c2.896,0,5.709-0.087,8.442-0.38C818.18,271.293,817.822,272.666,817.423,273.951z M863.902,211.958
		c0,7.412-1.127,14.383-3.887,20.718c-2.762,6.339-6.472,11.872-11.298,16.447c-4.834,4.584-10.532,8.215-17.068,10.79
		c-2.475,0.976-4.993,1.769-7.613,2.378c0.754-4.879,1.158-9.912,1.158-15.107c0-10.124-1.483-19.757-4.471-28.648
		c-1.485-4.425-3.286-8.535-5.415-12.535h48.594V211.958z"/>
	<g>
		<path d="M670.708,364.299c0-2.382,0.354-4.646,1.059-6.794c0.705-2.146,1.732-4.035,3.08-5.665s3-2.923,4.959-3.879
			s4.209-1.435,6.748-1.435c1.723,0,3.369,0.252,4.936,0.753c1.568,0.501,2.971,1.238,4.209,2.209
			c1.238,0.973,2.279,2.147,3.127,3.526c0.846,1.38,1.41,2.947,1.691,4.702h-1.975c-0.783-2.946-2.193-5.25-4.23-6.912
			c-2.039-1.66-4.607-2.491-7.711-2.491c-2.258,0-4.248,0.439-5.971,1.316c-1.725,0.878-3.166,2.053-4.326,3.526
			s-2.037,3.173-2.633,5.101s-0.893,3.942-0.893,6.042c0,2.132,0.289,4.146,0.869,6.042s1.441,3.549,2.586,4.96
			c1.145,1.41,2.578,2.531,4.303,3.361c1.723,0.831,3.744,1.246,6.064,1.246c2.006,0,3.809-0.329,5.406-0.987
			c1.6-0.658,2.955-1.582,4.066-2.774c1.113-1.19,1.951-2.624,2.516-4.302c0.564-1.676,0.801-3.55,0.705-5.618h-12.365v-1.787
			h14.152v16.456h-1.787v-7.146H699.2c-0.408,1.223-1.018,2.327-1.834,3.314c-0.814,0.987-1.779,1.818-2.891,2.492
			c-1.113,0.674-2.352,1.199-3.715,1.575s-2.781,0.563-4.254,0.563c-2.539,0-4.789-0.454-6.748-1.363
			c-1.959-0.908-3.611-2.146-4.959-3.714s-2.367-3.409-3.057-5.524C671.054,368.977,670.708,366.713,670.708,364.299z"/>
		<path d="M709.925,347.326h2.068v33.569h-2.068V347.326z"/>
		<path d="M731.364,379.109h0.094l11.613-31.783h2.068l-12.553,33.569h-2.398l-12.506-33.569h2.162L731.364,379.109z"/>
		<path d="M750.829,347.326h22.566v1.786h-20.498v13.447h19.277v1.786h-19.277v14.764h20.734v1.786h-22.803V347.326z"/>
		<path d="M793.825,380.19c-1.691,0.908-3.525,1.363-5.5,1.363c-1.443,0-2.783-0.204-4.02-0.611
			c-1.24-0.407-2.312-1.003-3.221-1.786c-0.91-0.783-1.623-1.755-2.141-2.915c-0.518-1.159-0.775-2.508-0.775-4.044
			c0-1.19,0.25-2.287,0.752-3.291c0.502-1.003,1.152-1.911,1.951-2.727s1.686-1.552,2.656-2.21c0.973-0.658,1.928-1.238,2.869-1.739
			c-0.471-0.596-0.949-1.199-1.434-1.811c-0.486-0.611-0.926-1.246-1.318-1.904c-0.391-0.658-0.721-1.347-0.986-2.068
			c-0.268-0.721-0.4-1.488-0.4-2.304c0-1.034,0.195-1.967,0.588-2.798c0.393-0.83,0.924-1.543,1.6-2.139
			c0.674-0.596,1.457-1.059,2.35-1.388c0.895-0.329,1.857-0.493,2.893-0.493c1.033,0,1.998,0.164,2.891,0.493
			c0.895,0.329,1.678,0.792,2.352,1.388s1.205,1.309,1.598,2.139c0.393,0.831,0.588,1.764,0.588,2.798s-0.188,1.975-0.564,2.82
			c-0.375,0.847-0.869,1.615-1.48,2.305s-1.309,1.324-2.092,1.903c-0.783,0.581-1.6,1.137-2.445,1.669l7.334,8.84
			c0.408-0.815,0.674-1.638,0.801-2.469c0.125-0.83,0.188-1.888,0.188-3.174h2.961c0,0.94-0.133,2.155-0.398,3.645
			c-0.268,1.488-0.793,2.954-1.576,4.396l5.643,6.817h-3.715l-3.572-4.372C796.976,378.06,795.519,379.281,793.825,380.19z
			 M785.55,365.615c-0.814,0.533-1.551,1.145-2.209,1.834s-1.191,1.45-1.598,2.28c-0.408,0.83-0.611,1.747-0.611,2.75
			c0,0.972,0.203,1.865,0.611,2.68c0.406,0.815,0.947,1.521,1.621,2.116c0.674,0.596,1.449,1.051,2.328,1.363
			c0.877,0.313,1.785,0.471,2.727,0.471c1.691,0,3.205-0.463,4.537-1.388c1.332-0.924,2.469-2.061,3.408-3.408l-8.369-10.155
			C787.181,364.597,786.366,365.083,785.55,365.615z M786.538,350.923c-0.879,0.736-1.316,1.81-1.316,3.221
			c0,0.596,0.125,1.198,0.375,1.81c0.252,0.611,0.564,1.207,0.941,1.787s0.783,1.145,1.223,1.692
			c0.438,0.549,0.846,1.042,1.223,1.481c0.594-0.377,1.199-0.783,1.809-1.223c0.611-0.438,1.168-0.933,1.67-1.481
			c0.502-0.548,0.908-1.159,1.223-1.833c0.312-0.674,0.471-1.418,0.471-2.233c0-1.411-0.439-2.484-1.316-3.221
			c-0.879-0.736-1.928-1.105-3.15-1.105S787.415,350.187,786.538,350.923z"/>
		<path d="M808.94,364.299c0-2.382,0.352-4.646,1.059-6.794c0.705-2.146,1.73-4.035,3.078-5.665s3.002-2.923,4.961-3.879
			s4.207-1.435,6.746-1.435c1.725,0,3.369,0.252,4.938,0.753c1.566,0.501,2.969,1.238,4.207,2.209
			c1.238,0.973,2.281,2.147,3.127,3.526c0.846,1.38,1.41,2.947,1.693,4.702h-1.975c-0.785-2.946-2.195-5.25-4.232-6.912
			c-2.037-1.66-4.607-2.491-7.711-2.491c-2.256,0-4.246,0.439-5.971,1.316c-1.725,0.878-3.166,2.053-4.324,3.526
			c-1.16,1.474-2.039,3.173-2.635,5.101s-0.893,3.942-0.893,6.042c0,2.132,0.289,4.146,0.869,6.042s1.441,3.549,2.586,4.96
			c1.145,1.41,2.578,2.531,4.303,3.361c1.723,0.831,3.746,1.246,6.064,1.246c2.006,0,3.809-0.329,5.408-0.987
			c1.598-0.658,2.953-1.582,4.066-2.774c1.111-1.19,1.951-2.624,2.516-4.302c0.564-1.676,0.799-3.55,0.705-5.618h-12.365v-1.787
			h14.152v16.456h-1.787v-7.146h-0.094c-0.408,1.223-1.02,2.327-1.834,3.314c-0.816,0.987-1.779,1.818-2.893,2.492
			c-1.111,0.674-2.35,1.199-3.713,1.575s-2.783,0.563-4.256,0.563c-2.539,0-4.787-0.454-6.746-1.363
			c-1.959-0.908-3.613-2.146-4.961-3.714s-2.367-3.409-3.055-5.524C809.284,368.977,808.94,366.713,808.94,364.299z"/>
		<path d="M848.138,347.326h22.566v1.786h-20.498v13.447h19.277v1.786h-19.277v14.764h20.734v1.786h-22.803V347.326z"/>
		<path d="M875.378,349.112v-1.786h25.719v1.786h-11.848v31.783h-2.07v-31.783H875.378z"/>
	</g>
</g>
</svg>
