<?xml version="1.0" standalone="no"?>
<!DOCTYPE svg PUBLIC "-//W3C//DTD SVG 20010904//EN"
 "http://www.w3.org/TR/2001/REC-SVG-20010904/DTD/svg10.dtd">
<svg version="1.0" xmlns="http://www.w3.org/2000/svg"
 width="300.000000pt" height="300.000000pt" viewBox="0 0 300.000000 300.000000"
 preserveAspectRatio="xMidYMid meet">
<metadata>
Created by potrace 1.11, written by Peter Selinger 2001-2013
</metadata>
<g transform="translate(0.000000,300.000000) scale(0.100000,-0.100000)"
fill="#000000" stroke="none">
<path d="M1628 2489 c-169 -23 -330 -122 -426 -261 -42 -61 -87 -158 -103
-219 l-12 -48 -69 -22 c-164 -52 -300 -191 -344 -349 -9 -30 -18 -63 -20 -72
-4 -14 1 -18 20 -18 21 0 27 7 41 58 39 134 135 249 257 307 40 19 77 35 83
35 7 0 11 -54 11 -152 1 -123 6 -169 23 -233 27 -101 71 -195 122 -262 l40
-53 -306 0 -305 0 0 -325 c0 -318 0 -325 20 -325 19 0 20 7 20 153 l1 152 31
-60 c41 -81 145 -181 228 -221 168 -81 405 -85 575 -9 72 32 167 106 216 167
44 55 112 190 124 245 3 18 14 34 23 37 9 3 37 10 62 16 111 29 237 121 306
224 l34 51 0 -133 0 -132 35 0 35 0 0 340 0 340 -297 0 -297 0 -63 64 c-121
123 -240 176 -416 184 -125 5 -121 -5 -55 132 72 149 210 262 368 301 78 19
231 17 305 -5 179 -53 307 -184 347 -353 13 -52 13 -53 50 -53 44 0 46 6 23
90 -51 192 -206 344 -400 394 -80 20 -205 27 -287 15z m-234 -585 c153 -39
296 -158 366 -305 22 -46 47 -111 56 -144 19 -72 30 -286 17 -335 l-9 -35 -76
-3 c-287 -11 -516 171 -585 465 -19 82 -25 292 -10 346 7 27 8 27 93 27 47 0
114 -7 148 -16z m881 -326 c-13 -155 -73 -281 -171 -366 -49 -42 -146 -96
-194 -107 l-26 -6 4 104 c6 149 -20 281 -83 430 -7 16 8 17 235 17 l241 0 -6
-72z m-938 -452 c116 -82 227 -117 376 -120 l98 -1 -6 -25 c-15 -68 -90 -195
-149 -254 -112 -112 -250 -166 -426 -166 -107 0 -176 16 -265 59 -170 84 -264
237 -280 454 l-6 87 305 0 306 0 47 -34z"/>
</g>
</svg>
